# AST/ASF file generated using VICON BodyLanguage
# -----------------------------------------------
:version 1.10
:name VICON
:units
  mass 1.0
  length 0.45
  angle deg
:documentation
   .ast/.asf automatically generated from VICON data using
   VICON BodyBuilder and BodyLanguage model FoxedUp or BRILLIANT.MOD
:root
   order TX TY TZ RX RY RZ
   axis XYZ
   position 0 0 0  
   orientation 0 0 0 
:bonedata
  begin
     id 1 
     name lhipjoint
     direction 0.64773 -0.699417 0.302095 
     length 2.48597 
     axis 0 0 0  XYZ
  end
  begin
     id 2 
     name lfemur
     direction 0.34202 -0.939693 0  
     length 6.71947  
     axis 0 0 20  XYZ
    dof rx ry rz
    limits (-160.0 20.0)
           (-70.0 70.0)
           (-60.0 70.0)
  end
  begin
     id 3 
     name ltibia
     direction 0.34202 -0.939693 0   
     length 8.08777   
     axis 0 0 20   XYZ
    dof rx
    limits (-10.0 170.0)
  end
  begin
     id 4 
     name lfoot
     direction 0.0808503 -0.222134 0.971658   
     length 2.08264   
     axis -90 7.62852e-016 20   XYZ
    dof rx rz
    limits (-45.0 90.0)
           (-70.0 20.0)
  end
  begin
     id 5 
     name ltoes
     direction 1.53502e-011 -4.22007e-011 1   
     length 1.04662   
     axis -90 7.62852e-016 20   XYZ
    dof rx
    limits (-90.0 20.0)
  end
  begin
     id 6 
     name rhipjoint
     direction -0.610924 -0.726792 0.313919   
     length 2.39233  
     axis 0 0 0  XYZ 
  end
  begin
     id 7 
     name rfemur
     direction -0.34202 -0.939693 0   
     length 6.96955   
     axis 0 0 -20   XYZ
    dof rx ry rz
    limits (-160.0 20.0)
           (-70.0 70.0)
           (-70.0 60.0)
  end
  begin
     id 8 
     name rtibia
     direction -0.34202 -0.939693 0   
     length 8.19584   
     axis 0 0 -20   XYZ
    dof rx
    limits (-10.0 170.0)
 end
 begin
     id 9 
     name rfoot
     direction -0.077777 -0.213691 0.9738   
     length 2.07539  
     axis -90 -7.62852e-016 -20   XYZ
    dof rx rz
    limits (-45.0 90.0)
           (-20.0 70.0)
  end
  begin
     id 10 
     name rtoes
     direction -1.53558e-011 -4.22006e-011 1   
     length 1.04381   
     axis -90 -7.62852e-016 -20   XYZ
    dof rx
    limits (-90.0 20.0)
  end
  begin
     id 11 
     name lowerback
     direction -0.00971646 0.996074 0.0879841   
     length 1.67643   
     axis 0 0 0   XYZ
    dof rx ry rz
    limits (-20.0 45.0)
           (-30.0 30.0)
           (-30.0 30.0)
  end
  begin
     id 12 
     name upperback
     direction 0.0127391 0.991676 0.128127   
     length 1.63741   
     axis 0 0 0   XYZ
    dof rx ry rz
    limits (-20.0 45.0)
           (-30.0 30.0)
           (-30.0 30.0)
  end
  begin
     id 13 
     name thorax
     direction 0.0167583 0.996049 0.0872067   
     length 1.65931   
     axis 0 0 0   XYZ
    dof rx ry rz
    limits (-20.0 45.0)
           (-30.0 30.0)
           (-30.0 30.0)
  end
  begin
     id 14 
     name lowerneck
     direction -0.0317829 0.998312 0.0486079   
     length 1.79021   
     axis 0 0 0   XYZ
    dof rx ry rz
    limits (-20.0 45.0)
           (-30.0 30.0)
           (-30.0 30.0)
  end
  begin
     id 15 
     name upperneck
     direction 0.0896851 0.972452 -0.215159   
     length 1.78797   
     axis 0 0 0   XYZ
    dof rx ry rz
    limits (-20.0 45.0)
           (-30.0 30.0)
           (-30.0 30.0)
  end
  begin
     id 16
     name head
     direction 0.0310949 0.996503 -0.0775582  
     length 1.81549  
     axis 0 0 0   XYZ
    dof rx ry rz
    limits (-20.0 45.0)
           (-30.0 30.0)
           (-30.0 30.0)
  end
  begin
     id 17 
     name lclavicle
     direction 0.853638 0.502051 -0.138733  
     length 3.31627  
     axis 0 0 0   XYZ
    dof ry rz
    limits (-20.0 10.0)
           (0.0 20.0)
  end
  begin
     id 18 
     name lhumerus
     direction 1 -4.48962e-011 -1.41788e-018   
     length 5.54893   
     axis 180 -30 -90   XYZ
    dof rx ry rz
    limits (-60.0 90.0)
           (-90.0 90.0)
           (-90.0 90.0)
  end
  begin
     id 19
     name lradius
     direction 1 -4.48962e-011 -4.95754e-027   
     length 3.02898   
     axis 180 -30 -90   XYZ
    dof rx
    limits (-10.0 170.0)
  end
  begin
     id 20
     name lwrist
     direction 1 -4.48952e-011 -1.03764e-026   
     length 1.51449   
     axis 9.09556e-015 90 90   XYZ
    dof ry
    limits (-180.0 0.0)
 end
  begin
     id 21 
     name lhand
     direction 1 -4.4902e-011 -2.07528e-026   
     length 0.640951   
     axis 1.3242e-014 90 90   XYZ
    dof rx rz
    limits (-90.0 90.0)
           (-45.0 45.0)
  end
  begin
     id 22 
     name lfingers
     direction 1 -4.49014e-011 -4.15056e-026   
     length 0.516751   
     axis 2.64841e-014 90 90   XYZ
    dof rx
    limits (0.0 90.0)
  end
  begin
     id 23
     name lthumb
     direction 0.707107 -6.35008e-011 0.707107   
     length 0.741954   
     axis -90 45 2.85299e-015   XYZ
    dof rx rz
    limits (-45.0 45.0)
           (-45.0 45.0)
  end
  begin
     id 24 
     name rclavicle
     direction -0.888531 0.455324 -0.0565039   
     length 3.20126  
     axis 0 0 0   XYZ 
    dof ry rz
    limits (-10.0 20.0)
           (-20.0 0.0)
  end
  begin
     id 25 
     name rhumerus
     direction -1 -4.48946e-011 -8.98298e-028  
     length 5.3519   
     axis 180 30 90   XYZ
    dof rx ry rz
    limits (-90.0 60.0)
           (-90.0 90.0)
           (-90.0 90.0)
  end
  begin
     id 26 
     name rradius
     direction -1 -4.4899e-011 -3.18779e-027   
     length 3.02531   
     axis 180 30 90   XYZ
    dof rx
    limits (-10.0 170.0)
  end
  begin
     id 27 
     name rwrist
     direction -1 -4.4897e-011 -1.03764e-026   
     length 1.51266   
     axis 9.09556e-015 -90 -90   XYZ
    dof ry
    limits (-180.0 0.0)
  end
  begin
     id 28
     name rhand
     direction -1 -4.48941e-011 -2.07528e-026   
     length 0.78389   
     axis 1.3242e-014 -90 -90   XYZ
    dof rx rz
    limits (-90.0 90.0)
           (-45.0 45.0)
  end
  begin
     id 29
     name rfingers
     direction -1 -4.49012e-011 -4.15056e-026   
     length 0.631992   
     axis 2.64841e-014 -90 -90   XYZ
    dof rx
    limits (0.0 90.0)
  end
  begin
     id 30
     name rthumb
     direction -0.707107 -6.3496e-011 0.707107   
     length 0.907418   
     axis -90 -45 -2.85299e-015   XYZ
    dof rx rz
    limits (-45.0 45.0)
           (-45.0 45.0)
  end
:hierarchy
  begin
    root lhipjoint rhipjoint lowerback
    lhipjoint lfemur
    lfemur ltibia
    ltibia lfoot
    lfoot ltoes
    rhipjoint rfemur
    rfemur rtibia
    rtibia rfoot
    rfoot rtoes
    lowerback upperback
    upperback thorax
    thorax lowerneck lclavicle rclavicle
    lowerneck upperneck
    upperneck head
    lclavicle lhumerus
    lhumerus lradius
    lradius lwrist
    lwrist lhand lthumb
    lhand lfingers
    rclavicle rhumerus
    rhumerus rradius
    rradius rwrist
    rwrist rhand rthumb
    rhand rfingers
  end

#!OML:ASF E:\Style3\Style3.ASF
:FULLY-SPECIFIED
:DEGREES
1038
root 0.501111 17.75 1.10003 -136.941 86.8573 206.935
lowerback -10.1938 -0.320238 -1.90754
upperback -12.4446 0.36553 -3.19078
thorax -7.45015 0.54279 -2.34794
lowerneck -13.1563 8.2579 1.5028
upperneck 27.9811 8.13166 16.0339
head 10.5217 6.26256 6.66702
rclavicle -9.54166e-015 1.43125e-014
rhumerus -101.641 37.2681 -121.122
rradius 111.637
rwrist -4.22666
rhand -2.21618 33.103
rfingers 7.12502
rthumb 23.466 4.51402
lclavicle -9.54166e-015 1.43125e-014
lhumerus 11.7004 56.6411 31.8744
lradius 55.5915
lwrist 85.3165
lhand 12.7872 22.1301
lfingers 7.12502
lthumb 37.7649 47.993
rfemur -14.3417 9.08447 20.8206
rtibia 15.7123
rfoot -16.647 -19.7654
rtoes -15.09
lfemur -7.01727 -24.8462 -9.40336
ltibia -2.8625e-014
lfoot -13.4166 24.6757
ltoes -9.05614
1039
root 0.504898 17.7496 1.09916 -135.614 86.928 208.309
lowerback -10.2107 -0.279044 -1.95224
upperback -12.4363 0.421353 -3.2435
thorax -7.43021 0.571855 -2.37644
lowerneck -13.1846 8.19649 1.51167
upperneck 28.0196 8.03066 16.0761
head 10.5502 6.22644 6.6782
rclavicle -2.98177e-014 4.13472e-014
rhumerus -101.677 37.2468 -121.181
rradius 111.659
rwrist -4.37045
rhand -2.62136 32.8336
rfingers 7.12502
rthumb 23.0773 4.19552
lclavicle -2.98177e-014 4.13472e-014
lhumerus 11.1716 56.5825 31.8327
lradius 55.5154
lwrist 85.4175
lhand 13.0012 22.7587
lfingers 7.12502
lthumb 37.967 48.5669
rfemur -14.2896 9.06173 20.8492
rtibia 15.7146
rfoot -16.6964 -19.658
rtoes -14.9685
lfemur -6.90398 -24.7565 -9.44737
ltibia -1.59028e-015
lfoot -13.1329 24.7306
ltoes -10.0491
1040
root 0.508847 17.7493 1.09858 -133.723 87.0067 210.227
lowerback -10.26 -0.246045 -1.99192
upperback -12.4104 0.466752 -3.28228
thorax -7.37259 0.595282 -2.39202
lowerneck -13.311 8.17591 1.50998
upperneck 28.1074 7.96944 16.1636
head 10.6101 6.21638 6.72381
rclavicle -3.18055e-015 -1.59028e-014
rhumerus -101.698 37.2756 -121.238
rradius 111.652
rwrist -4.49353
rhand -2.82703 32.7238
rfingers 7.12502
rthumb 22.88 4.06113
lclavicle -3.18055e-015 -1.59028e-014
lhumerus 10.6165 56.4912 31.6676
lradius 55.4583
lwrist 85.5249
lhand 13.17 23.2268
lfingers 7.12502
lthumb 38.1263 48.9915
rfemur -14.2944 9.08943 20.8815
rtibia 15.7507
rfoot -16.6765 -19.598
rtoes -15.0733
lfemur -6.80948 -24.6374 -9.46886
ltibia -1.74931e-014
lfoot -12.8988 24.7954
ltoes -10.9568
1041
root 0.510376 17.7495 1.09878 -132.795 87.0511 211.141
lowerback -10.3264 -0.219771 -2.06438
upperback -12.3804 0.50647 -3.32577
thorax -7.30127 0.618729 -2.39405
lowerneck -13.371 8.12641 1.44915
upperneck 28.0486 7.89592 16.2232
head 10.6004 6.18261 6.74678
rclavicle -9.54166e-015 1.74931e-014
rhumerus -101.674 37.2753 -121.219
rradius 111.684
rwrist -4.44442
rhand -2.96691 32.6973
rfingers 7.12502
rthumb 22.7457 4.01812
lclavicle -9.54166e-015 1.74931e-014
lhumerus 10.2634 56.4098 31.6445
lradius 55.3869
lwrist 85.4281
lhand 13.2457 23.2092
lfingers 7.12502
lthumb 38.1978 48.9543
rfemur -14.3499 9.09983 20.8896
rtibia 15.7985
rfoot -16.7542 -19.4843
rtoes -14.8341
lfemur -6.80394 -24.5688 -9.45813
ltibia 3.65764e-014
lfoot -12.9342 24.7627
ltoes -10.7827
1042
root 0.512701 17.7498 1.09992 -132.524 87.1295 211.382
lowerback -10.4138 -0.203236 -2.21999
upperback -12.3665 0.540429 -3.38613
thorax -7.23739 0.646521 -2.36811
lowerneck -13.366 8.06128 1.42813
upperneck 27.9592 7.79462 16.3001
head 10.5714 6.14117 6.75955
rclavicle -1.31198e-014 9.54166e-015
rhumerus -101.655 37.2562 -121.253
rradius 111.655
rwrist -4.34015
rhand -3.09112 32.6628
rfingers 7.12502
rthumb 22.6265 3.969
lclavicle -1.31198e-014 9.54166e-015
lhumerus 9.94062 56.2139 31.5533
lradius 55.3002
lwrist 85.1717
lhand 13.5566 23.0668
lfingers 7.12502
lthumb 38.4913 48.7307
rfemur -14.4152 9.05195 20.8488
rtibia 15.8472
rfoot -16.7985 -19.3478
rtoes -14.6963
lfemur -6.80555 -24.5006 -9.49183
ltibia 1.27222e-014
lfoot -13.0566 24.6615
ltoes -10.2701
1043
root 0.51671 17.7487 1.09973 -131.26 87.1913 212.634
lowerback -10.5073 -0.187308 -2.30985
upperback -12.3621 0.571404 -3.42654
thorax -7.18057 0.668422 -2.35795
lowerneck -13.3566 8.00188 1.40797
upperneck 27.8902 7.70318 16.3659
head 10.5486 6.10359 6.77084
rclavicle -9.54166e-015 -7.95139e-015
rhumerus -101.711 37.2728 -121.304
rradius 111.644
rwrist -4.34849
rhand -3.10671 32.7137
rfingers 7.12502
rthumb 22.6116 4.01812
lclavicle -9.54166e-015 -7.95139e-015
lhumerus 9.5151 55.9351 31.3517
lradius 55.2235
lwrist 85.0283
lhand 13.8847 23.0005
lfingers 7.12502
lthumb 38.8008 48.5773
rfemur -14.4605 8.95981 20.8578
rtibia 15.8998
rfoot -16.9014 -19.1354
rtoes -14.511
lfemur -6.76659 -24.4122 -9.50252
ltibia 9.54166e-015
lfoot -13.4688 24.5385
ltoes -9.03675
1044
root 0.519972 17.7479 1.10038 -130.258 87.2819 213.611
lowerback -10.5584 -0.183936 -2.45187
upperback -12.3924 0.58855 -3.45651
thorax -7.1874 0.68933 -2.31034
lowerneck -13.3777 7.95819 1.32413
upperneck 27.8939 7.63706 16.4658
head 10.5505 6.07936 6.81667
rclavicle -1.39149e-014 1.59028e-014
rhumerus -101.834 37.2958 -121.321
rradius 111.684
rwrist -4.45752
rhand -2.91951 32.8118
rfingers 7.12502
rthumb 22.7912 4.13819
lclavicle -1.39149e-014 1.59028e-014
lhumerus 9.15411 55.7493 31.2493
lradius 55.2362
lwrist 84.797
lhand 14.1094 23.0585
lfingers 7.12502
lthumb 39.0127 48.5749
rfemur -14.5181 9.02218 20.8196
rtibia 15.9494
rfoot -16.8711 -19.1648
rtoes -14.5684
lfemur -6.74459 -24.3153 -9.54615
ltibia 1.74931e-014
lfoot -13.8062 24.4765
ltoes -8.18492
1045
root 0.523178 17.7471 1.10173 -129.602 87.3393 214.266
lowerback -10.5833 -0.180786 -2.61021
upperback -12.411 0.604133 -3.49027
thorax -7.19604 0.710065 -2.2577
lowerneck -13.4411 7.91232 1.31016
upperneck 27.9438 7.55673 16.5203
head 10.5867 6.05285 6.84174
rclavicle 5.56597e-015 6.36111e-015
rhumerus -101.923 37.2886 -121.362
rradius 111.725
rwrist -4.60697
rhand -2.83996 32.7796
rfingers 7.12502
rthumb 22.8676 4.11542
lclavicle 5.56597e-015 6.36111e-015
lhumerus 8.99723 55.6079 31.3081
lradius 55.2741
lwrist 84.5831
lhand 14.1862 23.0708
lfingers 7.12502
lthumb 39.0851 48.5664
rfemur -14.537 9.01484 20.8137
rtibia 15.9948
rfoot -16.8405 -19.1665
rtoes -14.7237
lfemur -6.7097 -24.2557 -9.57794
ltibia -3.18055e-015
lfoot -13.8087 24.4745
ltoes -8.3013
1046
root 0.525647 17.7478 1.10343 -128.387 87.3667 215.497
lowerback -10.594 -0.192893 -2.75164
upperback -12.4123 0.596958 -3.47623
thorax -7.19341 0.718859 -2.16408
lowerneck -13.4754 7.89723 1.34248
upperneck 28.0121 7.52831 16.4959
head 10.6252 6.04408 6.8348
rclavicle -1.39149e-014 5.56597e-014
rhumerus -102.016 37.3404 -121.395
rradius 111.74
rwrist -4.58495
rhand -2.87406 32.7563
rfingers 7.12502
rthumb 22.8348 4.08808
lclavicle -1.39149e-014 5.56597e-014
lhumerus 8.63064 55.4454 31.1426
lradius 55.3755
lwrist 84.5776
lhand 14.1044 23.024
lfingers 7.12502
lthumb 39.008 48.5417
rfemur -14.5226 8.98239 20.8528
rtibia 16.0113
rfoot -16.8263 -19.0963
rtoes -14.6844
lfemur -6.66657 -24.1967 -9.57043
ltibia -1.27222e-014
lfoot -13.8286 24.4494
ltoes -8.37374
1047
root 0.528554 17.7465 1.10269 -127.333 87.4277 216.508
lowerback -10.6682 -0.20123 -2.84968
upperback -12.421 0.596829 -3.49428
thorax -7.16323 0.727138 -2.12777
lowerneck -13.4807 7.86847 1.30498
upperneck 27.9841 7.4872 16.5361
head 10.6157 6.02569 6.84921
rclavicle 5.56597e-015 1.59028e-014
rhumerus -102.038 37.4389 -121.439
rradius 111.722
rwrist -4.63902
rhand -2.81714 32.7554
rfingers 7.12502
rthumb 22.8895 4.09389
lclavicle 5.56597e-015 1.59028e-014
lhumerus 8.47416 55.4293 31.089
lradius 55.425
lwrist 84.5766
lhand 14.1534 23.0386
lfingers 7.12502
lthumb 39.0541 48.5431
rfemur -14.5803 8.86078 20.8469
rtibia 16.0166
rfoot -16.7026 -19.0259
rtoes -15.0339
lfemur -6.67881 -24.1175 -9.58576
ltibia -1.27222e-014
lfoot -13.9152 24.4194
ltoes -8.26707
